<?xml version="1.0" encoding="UTF-8"?>
<svg id="Capa_1" data-name="Capa 1" xmlns="http://www.w3.org/2000/svg" xmlns:xlink="http://www.w3.org/1999/xlink" viewBox="0 0 572 657">
  <defs>
    <style>
      .cls-1 {
        fill: #fff;
        font-family: Georgia-Bold, Georgia;
        font-size: 100px;
        font-weight: 700;
        isolation: isolate;
      }

      .cls-2 {
        fill: url(#Degradado_sin_nombre);
      }

      .cls-3 {
        fill: #fffdf9;
        stroke: #e6d2b7;
        stroke-width: 2px;
      }
    </style>
    <linearGradient id="Degradado_sin_nombre" data-name="Degradado sin nombre" x1="218.97" y1="392.95" x2="219.97" y2="391.95" gradientTransform="translate(-32196 58156) scale(148 -148)" gradientUnits="userSpaceOnUse">
      <stop offset="0" stop-color="#d71920"/>
      <stop offset="1" stop-color="#a9060b"/>
    </linearGradient>
  </defs>
  <circle class="cls-3" cx="286" cy="371" r="285"/>
  <circle class="cls-2" cx="286" cy="74" r="74"/>
  <text class="cls-1" transform="translate(249.77 89)"><tspan x="0" y="0">4</tspan></text>
  <path d="M417.27,446.16l10.39-11.59c6.54-7.3,6.54-19.17,0-26.47-3.17-3.53-7.38-5.48-11.87-5.48-3.37,0-6.58,1.1-9.31,3.14l-2.19-8.2,11.25-12.55c6.54-7.3,6.54-19.17,0-26.46-6.02-6.72-15.52-7.24-22.1-1.58l-13.33-49.91c5.32-5.72,10.43-11.28,15.23-16.64,13.85-15.45,25.11-31.8,31.71-46.04,11.15-24.07,6.48-36.94.6-43.5-5.88-6.56-17.42-11.76-39.01.68-12.77,7.36-27.43,19.92-41.29,35.36-4.81,5.36-9.8,11.04-14.92,16.98l-44.76-14.87c5.07-7.33,4.61-17.92-1.42-24.64-6.54-7.29-17.19-7.3-23.73,0l-11.25,12.55-7.35-2.44c1.83-3.05,2.82-6.64,2.82-10.39,0-5-1.75-9.7-4.91-13.23-6.54-7.3-17.19-7.3-23.73,0l-10.39,11.59-52.97-17.59c-1.89-.62-3.93-.05-5.32,1.5l-13.64,15.2c-2.29,2.55-1.99,6.91.62,9.04l133.65,109.08c-30.13,37.89-59.16,75.82-79.66,102.92l-39.31-16.86c-1.98-.85-4.21-.32-5.71,1.35l-16.16,18.02c-2.09,2.33-2.09,6.11,0,8.44l80.8,90.1c2.06,2.3,5.51,2.3,7.58,0l16.16-18.02c1.5-1.67,1.97-4.17,1.21-6.37l-15.12-43.83c24.3-22.85,58.32-55.22,92.3-88.83l10.62,16.18c1.88,2.87,5.71,3.24,8.02.79,1.93-2.04,2.19-5.46.63-7.85l-11.22-17.1c17.77-17.68,35.31-35.52,51.23-52.34l50.46,188.9-6.96,7.76-69.36-105.66c-1.75-2.66-5.1-3.24-7.48-1.29-2.39,1.95-2.91,5.69-1.16,8.35l73.05,111.28c1.91,2.91,5.82,3.25,8.11.7l13.64-15.2c1.39-1.55,1.91-3.83,1.35-5.93l-15.78-59.07ZM270.11,222.84c2.34-2.61,6.25-2.61,8.58,0s2.37,6.93,0,9.57l-2.51,2.8-13.23-4.4,7.16-7.98ZM225.67,209.33c2.36-2.64,6.22-2.64,8.58,0s2.37,6.93,0,9.57l-1.65,1.84-13.23-4.39,6.3-7.02ZM147.77,215.1l6.96-7.76,169.41,56.27c-15.08,17.75-31.08,37.32-46.94,57.13l-129.43-105.64ZM150.49,428.31l32.61,13.99c-8.18,10.86-14.45,19.27-18.15,24.24l-24.37-27.18,9.91-11.05ZM172.55,475.02c18.67-25.12,117.37-157.15,182.39-229.65,12.9-14.39,26.98-26.49,38.63-33.19,8.74-5.04,20.44-9.62,26.52-2.84s1.97,19.82-2.55,29.57c-6.02,12.99-16.87,28.68-29.77,43.07-65.02,72.5-183.42,182.56-205.95,203.38l-9.27-10.33ZM223.71,509.96l-9.91,11.05-24.37-27.18c4.46-4.12,12-11.12,21.74-20.24l12.54,36.37ZM411.51,416.55c2.37-2.64,6.22-2.64,8.58,0s2.37,6.93,0,9.57l-6.3,7.02-3.94-14.75,1.65-1.84ZM399.39,367c2.36-2.64,6.22-2.64,8.58,0,2.34,2.61,2.34,6.96,0,9.57l-7.16,7.98-3.94-14.75,2.51-2.8Z"/>
  <path d="M392.03,537.98l-45.71,50.97c-1.95,2.18-2.08,5.77-.29,8.1,2,2.61,5.68,2.77,7.86.34l45.71-50.97c2.09-2.33,2.09-6.11,0-8.45s-5.48-2.33-7.58,0Z"/>
  <path d="M376.75,520.94c2.09-2.33,2.09-6.11,0-8.44-2.09-2.33-5.48-2.33-7.57,0l-28.57,31.85c-1.95,2.18-2.08,5.77-.29,8.1,2,2.61,5.68,2.77,7.86.34l28.57-31.86Z"/>
  <path d="M359.61,489.09c2.09-2.33,2.09-6.12,0-8.45-2.09-2.33-5.48-2.33-7.58,0l-20,22.3c-1.95,2.17-2.08,5.77-.28,8.1,2,2.61,5.68,2.77,7.86.34l20-22.3Z"/>
  <path d="M125.36,235.36c-2.09-2.33-5.49-2.33-7.58,0l-45.71,50.97c-2.09,2.33-2.09,6.11,0,8.44,2.06,2.3,5.51,2.3,7.58,0l45.71-50.97c2.09-2.33,2.09-6.11,0-8.45Z"/>
  <path d="M148.21,260.84c-2.09-2.33-5.48-2.33-7.57,0l-28.57,31.86c-1.95,2.17-2.08,5.76-.29,8.1,2,2.61,5.68,2.77,7.86.34l28.57-31.85c2.09-2.33,2.09-6.12,0-8.45Z"/>
  <path d="M149.21,310.7c2.07,2.3,5.51,2.3,7.58,0l20-22.3c2.09-2.33,2.09-6.11,0-8.45-2.09-2.33-5.48-2.33-7.58,0l-20,22.3c-2.09,2.33-2.09,6.11,0,8.45Z"/>
</svg>